{
    "asset" : {
        "generator" : "Khronos glTF Blender I/O v0.9.36",
        "version" : "2.0"
    },
    "scene" : 0,
    "scenes" : [
        {
            "name" : "Scene",
            "nodes" : [
                0
            ]
        }
    ],
    "nodes" : [
        {
            "mesh" : 0,
            "name" : "Torus.001"
        }
    ],
    "materials" : [
        {
            "doubleSided" : true,
            "name" : "Material.002",
            "pbrMetallicRoughness" : {
                "baseColorFactor" : [
                    0.800000011920929,
                    0.800000011920929,
                    0.800000011920929,
                    1
                ],
                "metallicFactor" : 0,
                "roughnessFactor" : 0.5
            }
        }
    ],
    "meshes" : [
        {
            "name" : "Torus.001",
            "primitives" : [
                {
                    "attributes" : {
                        "POSITION" : 0,
                        "NORMAL" : 1,
                        "TEXCOORD_0" : 2
                    },
                    "indices" : 3,
                    "material" : 0
                }
            ]
        }
    ],
    "accessors" : [
        {
            "bufferView" : 0,
            "componentType" : 5126,
            "count" : 637,
            "max" : [
                1.0050090551376343,
                0.004702502861618996,
                1.0050090551376343
            ],
            "min" : [
                -1.0050090551376343,
                -0.004702521488070488,
                -1.0050090551376343
            ],
            "type" : "VEC3"
        },
        {
            "bufferView" : 1,
            "componentType" : 5126,
            "count" : 637,
            "type" : "VEC3"
        },
        {
            "bufferView" : 2,
            "componentType" : 5126,
            "count" : 637,
            "type" : "VEC2"
        },
        {
            "bufferView" : 3,
            "componentType" : 5123,
            "count" : 3456,
            "type" : "SCALAR"
        }
    ],
    "bufferViews" : [
        {
            "buffer" : 0,
            "byteLength" : 7644,
            "byteOffset" : 0
        },
        {
            "buffer" : 0,
            "byteLength" : 7644,
            "byteOffset" : 7644
        },
        {
            "buffer" : 0,
            "byteLength" : 5096,
            "byteOffset" : 15288
        },
        {
            "buffer" : 0,
            "byteLength" : 6912,
            "byteOffset" : 20384
        }
    ],
    "buffers" : [
        {
            "byteLength" : 27296,
            "uri" : "data:application/octet-stream;base64,"
        }
    ]
}
