{
    "asset" : {
        "generator" : "Khronos glTF Blender I/O v1.0.5",
        "version" : "2.0"
    },
    "scene" : 0,
    "scenes" : [
        {
            "name" : "Scene",
            "nodes" : [
                0,
                1,
                2,
                3
            ]
        }
    ],
    "nodes" : [
        {
            "mesh" : 0,
            "name" : "Sphere",
            "rotation" : [
                -0.2705981433391571,
                0.6532815098762512,
                -0.6532814502716064,
                0.2705979645252228
            ],
            "scale" : [
                3.8656957149505615,
                3.8656957149505615,
                3.8656957149505615
            ],
            "translation" : [
                -0.2243959903717041,
                -0.007680593058466911,
                -0.07465475797653198
            ]
        },
        {
            "mesh" : 1,
            "name" : "Cone",
            "rotation" : [
                0,
                0.7071067690849304,
                -0.7071067690849304,
                -1.152023116901546e-07
            ],
            "scale" : [
                2.288350820541382,
                3.215620756149292,
                2.288350820541382
            ],
            "translation" : [
                -0.22439563274383545,
                -0.007680593058466911,
                2.306469678878784
            ]
        },
        {
            "mesh" : 2,
            "name" : "Cylinder.000",
            "rotation" : [
                -0.15577512979507446,
                -0.3760735094547272,
                -0.8438732028007507,
                -0.34954380989074707
            ],
            "scale" : [
                0.4651796221733093,
                0.4651796221733093,
                0.4651796817779541
            ],
            "translation" : [
                1.922271966934204,
                2.1641488075256348,
                0.5307059288024902
            ]
        },
        {
            "mesh" : 3,
            "name" : "Cylinder.004",
            "rotation" : [
                0.37607306241989136,
                0.15577474236488342,
                0.3495439291000366,
                0.8438733816146851
            ],
            "scale" : [
                0.4651796817779541,
                0.4651796817779541,
                0.4651796221733093
            ],
            "translation" : [
                1.8515211343765259,
                -2.075110673904419,
                -0.09011954069137573
            ]
        }
    ],
    "materials" : [
        {
            "doubleSided" : true,
            "name" : "Material",
            "pbrMetallicRoughness" : {
                "baseColorTexture" : {
                    "index" : 0,
                    "texCoord" : 0
                },
                "metallicFactor" : 0,
                "roughnessFactor" : 0.5
            }
        },
        {
            "doubleSided" : true,
            "name" : "Material.001",
            "pbrMetallicRoughness" : {
                "baseColorTexture" : {
                    "index" : 1,
                    "texCoord" : 0
                },
                "metallicFactor" : 0,
                "roughnessFactor" : 0.5
            }
        },
        {
            "doubleSided" : true,
            "name" : "Material.003",
            "pbrMetallicRoughness" : {
                "baseColorTexture" : {
                    "index" : 2,
                    "texCoord" : 0
                },
                "metallicFactor" : 0,
                "roughnessFactor" : 0.5
            }
        }
    ],
    "meshes" : [
        {
            "name" : "Sphere",
            "primitives" : [
                {
                    "attributes" : {
                        "POSITION" : 0,
                        "NORMAL" : 1,
                        "TEXCOORD_0" : 2
                    },
                    "indices" : 3,
                    "material" : 0
                }
            ]
        },
        {
            "name" : "Cone",
            "primitives" : [
                {
                    "attributes" : {
                        "POSITION" : 4,
                        "NORMAL" : 5,
                        "TEXCOORD_0" : 6
                    },
                    "indices" : 7,
                    "material" : 1
                }
            ]
        },
        {
            "name" : "Cylinder.002",
            "primitives" : [
                {
                    "attributes" : {
                        "POSITION" : 8,
                        "NORMAL" : 9,
                        "TEXCOORD_0" : 10
                    },
                    "indices" : 11,
                    "material" : 2
                }
            ]
        },
        {
            "name" : "Cylinder.002",
            "primitives" : [
                {
                    "attributes" : {
                        "POSITION" : 12,
                        "NORMAL" : 13,
                        "TEXCOORD_0" : 14
                    },
                    "indices" : 11,
                    "material" : 2
                }
            ]
        }
    ],
    "textures" : [
        {
            "source" : 0
        },
        {
            "source" : 1
        },
        {
            "source" : 2
        }
    ],
    "images" : [
        {
            "bufferView" : 4,
            "mimeType" : "image/png",
            "name" : "enemy_plasma"
        },
        {
            "bufferView" : 9,
            "mimeType" : "image/jpeg",
            "name" : "Crystal"
        },
        {
            "bufferView" : 14,
            "mimeType" : "image/png",
            "name" : "Varied red"
        }
    ],
    "accessors" : [
        {
            "bufferView" : 0,
            "componentType" : 5126,
            "count" : 795,
            "max" : [
                1.600000262260437,
                1.1159815788269043,
                1.3665544986724854
            ],
            "min" : [
                -1.499999761581421,
                -1,
                -1.2794537544250488
            ],
            "type" : "VEC3"
        },
        {
            "bufferView" : 1,
            "componentType" : 5126,
            "count" : 795,
            "type" : "VEC3"
        },
        {
            "bufferView" : 2,
            "componentType" : 5126,
            "count" : 795,
            "type" : "VEC2"
        },
        {
            "bufferView" : 3,
            "componentType" : 5123,
            "count" : 4260,
            "type" : "SCALAR"
        },
        {
            "bufferView" : 5,
            "componentType" : 5126,
            "count" : 384,
            "max" : [
                1,
                1,
                1
            ],
            "min" : [
                -1,
                -1,
                -1
            ],
            "type" : "VEC3"
        },
        {
            "bufferView" : 6,
            "componentType" : 5126,
            "count" : 384,
            "type" : "VEC3"
        },
        {
            "bufferView" : 7,
            "componentType" : 5126,
            "count" : 384,
            "type" : "VEC2"
        },
        {
            "bufferView" : 8,
            "componentType" : 5123,
            "count" : 570,
            "type" : "SCALAR"
        },
        {
            "bufferView" : 10,
            "componentType" : 5126,
            "count" : 1216,
            "max" : [
                1.0000005960464478,
                9.996285438537598,
                1
            ],
            "min" : [
                -1.000006914138794,
                -18.032615661621094,
                -26.14642906188965
            ],
            "type" : "VEC3"
        },
        {
            "bufferView" : 11,
            "componentType" : 5126,
            "count" : 1216,
            "type" : "VEC3"
        },
        {
            "bufferView" : 12,
            "componentType" : 5126,
            "count" : 1216,
            "type" : "VEC2"
        },
        {
            "bufferView" : 13,
            "componentType" : 5123,
            "count" : 2088,
            "type" : "SCALAR"
        },
        {
            "bufferView" : 15,
            "componentType" : 5126,
            "count" : 1216,
            "max" : [
                1.0000005960464478,
                9.996285438537598,
                1
            ],
            "min" : [
                -1.000006914138794,
                -18.032615661621094,
                -26.14642906188965
            ],
            "type" : "VEC3"
        },
        {
            "bufferView" : 16,
            "componentType" : 5126,
            "count" : 1216,
            "type" : "VEC3"
        },
        {
            "bufferView" : 17,
            "componentType" : 5126,
            "count" : 1216,
            "type" : "VEC2"
        }
    ],
    "bufferViews" : [
        {
            "buffer" : 0,
            "byteLength" : 9540,
            "byteOffset" : 0
        },
        {
            "buffer" : 0,
            "byteLength" : 9540,
            "byteOffset" : 9540
        },
        {
            "buffer" : 0,
            "byteLength" : 6360,
            "byteOffset" : 19080
        },
        {
            "buffer" : 0,
            "byteLength" : 8520,
            "byteOffset" : 25440
        },
        {
            "buffer" : 0,
            "byteLength" : 43462,
            "byteOffset" : 33960
        },
        {
            "buffer" : 0,
            "byteLength" : 4608,
            "byteOffset" : 77424
        },
        {
            "buffer" : 0,
            "byteLength" : 4608,
            "byteOffset" : 82032
        },
        {
            "buffer" : 0,
            "byteLength" : 3072,
            "byteOffset" : 86640
        },
        {
            "buffer" : 0,
            "byteLength" : 1140,
            "byteOffset" : 89712
        },
        {
            "buffer" : 0,
            "byteLength" : 37482,
            "byteOffset" : 90852
        },
        {
            "buffer" : 0,
            "byteLength" : 14592,
            "byteOffset" : 128336
        },
        {
            "buffer" : 0,
            "byteLength" : 14592,
            "byteOffset" : 142928
        },
        {
            "buffer" : 0,
            "byteLength" : 9728,
            "byteOffset" : 157520
        },
        {
            "buffer" : 0,
            "byteLength" : 4176,
            "byteOffset" : 167248
        },
        {
            "buffer" : 0,
            "byteLength" : 29879,
            "byteOffset" : 171424
        },
        {
            "buffer" : 0,
            "byteLength" : 14592,
            "byteOffset" : 201304
        },
        {
            "buffer" : 0,
            "byteLength" : 14592,
            "byteOffset" : 215896
        },
        {
            "buffer" : 0,
            "byteLength" : 9728,
            "byteOffset" : 230488
        }
    ],
    "buffers" : [
        {
            "byteLength" : 240216,
            "uri" : "data:application/octet-stream;base64,"
        }
    ]
}
