{
    "asset" : {
        "generator" : "Khronos glTF Blender I/O v1.0.5",
        "version" : "2.0"
    },
    "scene" : 0,
    "scenes" : [
        {
            "name" : "Scene",
            "nodes" : [
                0,
                1
            ]
        }
    ],
    "nodes" : [
        {
            "mesh" : 0,
            "name" : "Cylinder.011",
            "rotation" : [
                0.7071067690849304,
                0,
                0,
                0.7071067690849304
            ],
            "scale" : [
                0.12483429908752441,
                0.12483429908752441,
                0.12483429908752441
            ],
            "translation" : [
                0.025102762505412102,
                0,
                0.0032935142517089844
            ]
        },
        {
            "mesh" : 1,
            "name" : "Cube.001",
            "scale" : [
                0.006048018112778664,
                0.006048018112778664,
                0.006048018112778664
            ],
            "translation" : [
                0.026033539324998856,
                0.002712562680244446,
                0.1338331699371338
            ]
        }
    ],
    "materials" : [
        {
            "doubleSided" : true,
            "name" : "Material.016",
            "pbrMetallicRoughness" : {
                "baseColorTexture" : {
                    "index" : 0,
                    "texCoord" : 0
                },
                "metallicFactor" : 0,
                "roughnessFactor" : 0.5
            }
        },
        {
            "doubleSided" : true,
            "name" : "Material.015",
            "pbrMetallicRoughness" : {
                "baseColorTexture" : {
                    "index" : 1,
                    "texCoord" : 0
                },
                "metallicFactor" : 0,
                "roughnessFactor" : 0.5
            }
        }
    ],
    "meshes" : [
        {
            "name" : "Cylinder.011",
            "primitives" : [
                {
                    "attributes" : {
                        "POSITION" : 0,
                        "NORMAL" : 1,
                        "TEXCOORD_0" : 2
                    },
                    "indices" : 3,
                    "material" : 0
                }
            ]
        },
        {
            "name" : "Cube.004",
            "primitives" : [
                {
                    "attributes" : {
                        "POSITION" : 4,
                        "NORMAL" : 5,
                        "TEXCOORD_0" : 6
                    },
                    "indices" : 7,
                    "material" : 1
                }
            ]
        }
    ],
    "textures" : [
        {
            "source" : 0
        },
        {
            "source" : 1
        }
    ],
    "images" : [
        {
            "bufferView" : 4,
            "mimeType" : "image/jpeg",
            "name" : "Shiny Metal"
        },
        {
            "bufferView" : 9,
            "mimeType" : "image/png",
            "name" : "Varied red"
        }
    ],
    "accessors" : [
        {
            "bufferView" : 0,
            "componentType" : 5126,
            "count" : 704,
            "max" : [
                1,
                0.9999972581863403,
                1
            ],
            "min" : [
                -1,
                -2.0620498657226562,
                -1
            ],
            "type" : "VEC3"
        },
        {
            "bufferView" : 1,
            "componentType" : 5126,
            "count" : 704,
            "type" : "VEC3"
        },
        {
            "bufferView" : 2,
            "componentType" : 5126,
            "count" : 704,
            "type" : "VEC2"
        },
        {
            "bufferView" : 3,
            "componentType" : 5123,
            "count" : 1140,
            "type" : "SCALAR"
        },
        {
            "bufferView" : 5,
            "componentType" : 5126,
            "count" : 104,
            "max" : [
                17.534343719482422,
                17.534345626831055,
                1.43772292137146
            ],
            "min" : [
                -17.534343719482422,
                -17.534343719482422,
                -1
            ],
            "type" : "VEC3"
        },
        {
            "bufferView" : 6,
            "componentType" : 5126,
            "count" : 104,
            "type" : "VEC3"
        },
        {
            "bufferView" : 7,
            "componentType" : 5126,
            "count" : 104,
            "type" : "VEC2"
        },
        {
            "bufferView" : 8,
            "componentType" : 5123,
            "count" : 156,
            "type" : "SCALAR"
        }
    ],
    "bufferViews" : [
        {
            "buffer" : 0,
            "byteLength" : 8448,
            "byteOffset" : 0
        },
        {
            "buffer" : 0,
            "byteLength" : 8448,
            "byteOffset" : 8448
        },
        {
            "buffer" : 0,
            "byteLength" : 5632,
            "byteOffset" : 16896
        },
        {
            "buffer" : 0,
            "byteLength" : 2280,
            "byteOffset" : 22528
        },
        {
            "buffer" : 0,
            "byteLength" : 28082,
            "byteOffset" : 24808
        },
        {
            "buffer" : 0,
            "byteLength" : 1248,
            "byteOffset" : 52892
        },
        {
            "buffer" : 0,
            "byteLength" : 1248,
            "byteOffset" : 54140
        },
        {
            "buffer" : 0,
            "byteLength" : 832,
            "byteOffset" : 55388
        },
        {
            "buffer" : 0,
            "byteLength" : 312,
            "byteOffset" : 56220
        },
        {
            "buffer" : 0,
            "byteLength" : 29879,
            "byteOffset" : 56532
        }
    ],
    "buffers" : [
        {
            "byteLength" : 86412,
            "uri" : "data:application/octet-stream;base64,"
        }
    ]
}
