{
    "asset" : {
        "generator" : "Khronos glTF Blender I/O v1.0.5",
        "version" : "2.0"
    },
    "scene" : 0,
    "scenes" : [
        {
            "name" : "Scene",
            "nodes" : [
                0,
                1,
                2,
                3,
                4
            ]
        }
    ],
    "nodes" : [
        {
            "mesh" : 0,
            "name" : "Sphere",
            "rotation" : [
                0,
                0.7071067690849304,
                -0.7071067690849304,
                -1.152023116901546e-07
            ],
            "scale" : [
                2.72810959815979,
                2.72810959815979,
                2.72810959815979
            ],
            "translation" : [
                -0.013535231351852417,
                0.013149380683898926,
                -0.3067901134490967
            ]
        },
        {
            "mesh" : 1,
            "name" : "Cone",
            "rotation" : [
                0,
                0.7071067690849304,
                -0.7071067690849304,
                -1.152023116901546e-07
            ],
            "scale" : [
                1.6149413585662842,
                2.2693369388580322,
                1.6149413585662842
            ],
            "translation" : [
                -0.013535171747207642,
                0.013149380683898926,
                0.6188762187957764
            ]
        },
        {
            "mesh" : 2,
            "name" : "Cylinder.000",
            "rotation" : [
                0,
                -0.9134019017219543,
                0.4070589244365692,
                -2.3666849813253066e-07
            ],
            "scale" : [
                0.17597514390945435,
                0.17597514390945435,
                0.17597514390945435
            ],
            "translation" : [
                0.014080852270126343,
                -0.9063637256622314,
                -4.402034282684326
            ]
        },
        {
            "mesh" : 3,
            "name" : "Cylinder.004",
            "rotation" : [
                0.645872950553894,
                -0.6458725929260254,
                0.2878338098526001,
                -0.2878339886665344
            ],
            "scale" : [
                0.17597514390945435,
                0.17597514390945435,
                0.17597514390945435
            ],
            "translation" : [
                1.137675404548645,
                0.03903549909591675,
                -4.657425880432129
            ]
        },
        {
            "mesh" : 4,
            "name" : "Cylinder.002",
            "rotation" : [
                0,
                0.7071067690849304,
                -0.7071067690849304,
                -1.152023116901546e-07
            ],
            "scale" : [
                0.1402035653591156,
                -1.2688326835632324,
                0.1402035653591156
            ],
            "translation" : [
                -0.01353558897972107,
                0.01315295696258545,
                -4.126895904541016
            ]
        }
    ],
    "materials" : [
        {
            "doubleSided" : true,
            "name" : "Material",
            "pbrMetallicRoughness" : {
                "baseColorTexture" : {
                    "index" : 0,
                    "texCoord" : 0
                },
                "metallicFactor" : 0,
                "roughnessFactor" : 0.5
            }
        },
        {
            "doubleSided" : true,
            "name" : "Material.001",
            "pbrMetallicRoughness" : {
                "baseColorTexture" : {
                    "index" : 1,
                    "texCoord" : 0
                },
                "metallicFactor" : 0,
                "roughnessFactor" : 0.5
            }
        },
        {
            "doubleSided" : true,
            "name" : "Material.004",
            "pbrMetallicRoughness" : {
                "baseColorTexture" : {
                    "index" : 2,
                    "texCoord" : 0
                },
                "metallicFactor" : 0,
                "roughnessFactor" : 0.5
            }
        },
        {
            "doubleSided" : true,
            "name" : "Material.002",
            "pbrMetallicRoughness" : {
                "baseColorTexture" : {
                    "index" : 3,
                    "texCoord" : 0
                },
                "metallicFactor" : 0,
                "roughnessFactor" : 0.5
            }
        }
    ],
    "meshes" : [
        {
            "name" : "Sphere",
            "primitives" : [
                {
                    "attributes" : {
                        "POSITION" : 0,
                        "NORMAL" : 1,
                        "TEXCOORD_0" : 2
                    },
                    "indices" : 3,
                    "material" : 0
                }
            ]
        },
        {
            "name" : "Cone",
            "primitives" : [
                {
                    "attributes" : {
                        "POSITION" : 4,
                        "NORMAL" : 5,
                        "TEXCOORD_0" : 6
                    },
                    "indices" : 7,
                    "material" : 1
                }
            ]
        },
        {
            "name" : "Cylinder.002",
            "primitives" : [
                {
                    "attributes" : {
                        "POSITION" : 8,
                        "NORMAL" : 9,
                        "TEXCOORD_0" : 10
                    },
                    "indices" : 11,
                    "material" : 2
                }
            ]
        },
        {
            "name" : "Cylinder.002",
            "primitives" : [
                {
                    "attributes" : {
                        "POSITION" : 12,
                        "NORMAL" : 13,
                        "TEXCOORD_0" : 14
                    },
                    "indices" : 11,
                    "material" : 2
                }
            ]
        },
        {
            "name" : "Cylinder.004",
            "primitives" : [
                {
                    "attributes" : {
                        "POSITION" : 15,
                        "NORMAL" : 16,
                        "TEXCOORD_0" : 17
                    },
                    "indices" : 18,
                    "material" : 3
                }
            ]
        }
    ],
    "textures" : [
        {
            "source" : 0
        },
        {
            "source" : 1
        },
        {
            "source" : 2
        },
        {
            "source" : 2
        }
    ],
    "images" : [
        {
            "bufferView" : 4,
            "mimeType" : "image/jpeg",
            "name" : "Solar Panel Texture"
        },
        {
            "bufferView" : 9,
            "mimeType" : "image/jpeg",
            "name" : "Crystal"
        },
        {
            "bufferView" : 14,
            "mimeType" : "image/png",
            "name" : "Plasma"
        }
    ],
    "accessors" : [
        {
            "bufferView" : 0,
            "componentType" : 5126,
            "count" : 701,
            "max" : [
                1.600000262260437,
                1,
                1.0000003576278687
            ],
            "min" : [
                -1.499999761581421,
                -1,
                -1.2794537544250488
            ],
            "type" : "VEC3"
        },
        {
            "bufferView" : 1,
            "componentType" : 5126,
            "count" : 701,
            "type" : "VEC3"
        },
        {
            "bufferView" : 2,
            "componentType" : 5126,
            "count" : 701,
            "type" : "VEC2"
        },
        {
            "bufferView" : 3,
            "componentType" : 5123,
            "count" : 3708,
            "type" : "SCALAR"
        },
        {
            "bufferView" : 5,
            "componentType" : 5126,
            "count" : 384,
            "max" : [
                1,
                1,
                1
            ],
            "min" : [
                -1,
                -1,
                -1
            ],
            "type" : "VEC3"
        },
        {
            "bufferView" : 6,
            "componentType" : 5126,
            "count" : 384,
            "type" : "VEC3"
        },
        {
            "bufferView" : 7,
            "componentType" : 5126,
            "count" : 384,
            "type" : "VEC2"
        },
        {
            "bufferView" : 8,
            "componentType" : 5123,
            "count" : 570,
            "type" : "SCALAR"
        },
        {
            "bufferView" : 10,
            "componentType" : 5126,
            "count" : 1216,
            "max" : [
                1.0000005960464478,
                9.996285438537598,
                1
            ],
            "min" : [
                -1.000006914138794,
                -18.032615661621094,
                -26.14642906188965
            ],
            "type" : "VEC3"
        },
        {
            "bufferView" : 11,
            "componentType" : 5126,
            "count" : 1216,
            "type" : "VEC3"
        },
        {
            "bufferView" : 12,
            "componentType" : 5126,
            "count" : 1216,
            "type" : "VEC2"
        },
        {
            "bufferView" : 13,
            "componentType" : 5123,
            "count" : 2088,
            "type" : "SCALAR"
        },
        {
            "bufferView" : 15,
            "componentType" : 5126,
            "count" : 1216,
            "max" : [
                1.0000005960464478,
                9.996285438537598,
                1
            ],
            "min" : [
                -1.000006914138794,
                -18.032615661621094,
                -26.14642906188965
            ],
            "type" : "VEC3"
        },
        {
            "bufferView" : 16,
            "componentType" : 5126,
            "count" : 1216,
            "type" : "VEC3"
        },
        {
            "bufferView" : 17,
            "componentType" : 5126,
            "count" : 1216,
            "type" : "VEC2"
        },
        {
            "bufferView" : 18,
            "componentType" : 5126,
            "count" : 196,
            "max" : [
                1,
                1,
                1
            ],
            "min" : [
                -1,
                -2.0152676105499268,
                -1.0000003576278687
            ],
            "type" : "VEC3"
        },
        {
            "bufferView" : 19,
            "componentType" : 5126,
            "count" : 196,
            "type" : "VEC3"
        },
        {
            "bufferView" : 20,
            "componentType" : 5126,
            "count" : 196,
            "type" : "VEC2"
        },
        {
            "bufferView" : 21,
            "componentType" : 5123,
            "count" : 756,
            "type" : "SCALAR"
        }
    ],
    "bufferViews" : [
        {
            "buffer" : 0,
            "byteLength" : 8412,
            "byteOffset" : 0
        },
        {
            "buffer" : 0,
            "byteLength" : 8412,
            "byteOffset" : 8412
        },
        {
            "buffer" : 0,
            "byteLength" : 5608,
            "byteOffset" : 16824
        },
        {
            "buffer" : 0,
            "byteLength" : 7416,
            "byteOffset" : 22432
        },
        {
            "buffer" : 0,
            "byteLength" : 60234,
            "byteOffset" : 29848
        },
        {
            "buffer" : 0,
            "byteLength" : 4608,
            "byteOffset" : 90084
        },
        {
            "buffer" : 0,
            "byteLength" : 4608,
            "byteOffset" : 94692
        },
        {
            "buffer" : 0,
            "byteLength" : 3072,
            "byteOffset" : 99300
        },
        {
            "buffer" : 0,
            "byteLength" : 1140,
            "byteOffset" : 102372
        },
        {
            "buffer" : 0,
            "byteLength" : 37482,
            "byteOffset" : 103512
        },
        {
            "buffer" : 0,
            "byteLength" : 14592,
            "byteOffset" : 140996
        },
        {
            "buffer" : 0,
            "byteLength" : 14592,
            "byteOffset" : 155588
        },
        {
            "buffer" : 0,
            "byteLength" : 9728,
            "byteOffset" : 170180
        },
        {
            "buffer" : 0,
            "byteLength" : 4176,
            "byteOffset" : 179908
        },
        {
            "buffer" : 0,
            "byteLength" : 397733,
            "byteOffset" : 184084
        },
        {
            "buffer" : 0,
            "byteLength" : 14592,
            "byteOffset" : 581820
        },
        {
            "buffer" : 0,
            "byteLength" : 14592,
            "byteOffset" : 596412
        },
        {
            "buffer" : 0,
            "byteLength" : 9728,
            "byteOffset" : 611004
        },
        {
            "buffer" : 0,
            "byteLength" : 2352,
            "byteOffset" : 620732
        },
        {
            "buffer" : 0,
            "byteLength" : 2352,
            "byteOffset" : 623084
        },
        {
            "buffer" : 0,
            "byteLength" : 1568,
            "byteOffset" : 625436
        },
        {
            "buffer" : 0,
            "byteLength" : 1512,
            "byteOffset" : 627004
        }
    ],
    "buffers" : [
        {
            "byteLength" : 628516,
            "uri" : "data:application/octet-stream;base64,"
        }
    ]
}
